<?xml version="1.0" encoding="UTF-8" standalone="no"?>
<!DOCTYPE svg PUBLIC "-//W3C//DTD SVG 1.1//EN"
 "http://www.w3.org/Graphics/SVG/1.1/DTD/svg11.dtd">
<!-- Generated by graphviz version 2.43.0 (0)
 -->
<!-- Title: pastafarianism Pages: 1 -->
<svg width="404pt" height="260pt"
 viewBox="0.00 0.00 404.32 260.00" xmlns="http://www.w3.org/2000/svg" xmlns:xlink="http://www.w3.org/1999/xlink">
<g id="graph0" class="graph" transform="scale(1 1) rotate(0) translate(4 256)">
<title>pastafarianism</title>
<polygon fill="white" stroke="transparent" points="-4,4 -4,-256 400.32,-256 400.32,4 -4,4"/>
<!-- selector -->
<g id="node1" class="node">
<title>selector</title>
<polygon fill="cyan" stroke="black" points="223.23,-226.54 223.23,-241.46 203.76,-252 176.22,-252 156.75,-241.46 156.75,-226.54 176.22,-216 203.76,-216 223.23,-226.54"/>
<text text-anchor="middle" x="189.99" y="-231.8" font-family="Times,serif" font-size="9.00">selector</text>
</g>
<!-- sequence -->
<g id="node2" class="node">
<title>sequence</title>
<polygon fill="orange" stroke="black" points="161.99,-180 101.99,-180 101.99,-144 161.99,-144 161.99,-180"/>
<text text-anchor="middle" x="131.99" y="-159.8" font-family="Times,serif" font-size="9.00">sequence</text>
</g>
<!-- selector&#45;&gt;sequence -->
<g id="edge1" class="edge">
<title>selector&#45;&gt;sequence</title>
<path fill="none" stroke="black" d="M175.95,-216.05C169,-207.67 160.47,-197.38 152.79,-188.1"/>
<polygon fill="black" stroke="black" points="155.38,-185.74 146.31,-180.28 149.99,-190.21 155.38,-185.74"/>
</g>
<!-- sequence* -->
<g id="node5" class="node">
<title>sequence*</title>
<polygon fill="orange" stroke="black" points="280.49,-180 215.49,-180 215.49,-144 280.49,-144 280.49,-180"/>
<text text-anchor="middle" x="247.99" y="-159.8" font-family="Times,serif" font-size="9.00">sequence*</text>
</g>
<!-- selector&#45;&gt;sequence* -->
<g id="edge4" class="edge">
<title>selector&#45;&gt;sequence*</title>
<path fill="none" stroke="black" d="M204.03,-216.05C210.98,-207.67 219.51,-197.38 227.2,-188.1"/>
<polygon fill="black" stroke="black" points="229.99,-190.21 233.68,-180.28 224.6,-185.74 229.99,-190.21"/>
</g>
<!-- condition_1 -->
<g id="node3" class="node">
<title>condition_1</title>
<ellipse fill="gray" stroke="black" cx="40.99" cy="-90" rx="40.98" ry="18"/>
<text text-anchor="middle" x="40.99" y="-87.8" font-family="Times,serif" font-size="9.00">condition_1</text>
</g>
<!-- sequence&#45;&gt;condition_1 -->
<g id="edge2" class="edge">
<title>sequence&#45;&gt;condition_1</title>
<path fill="none" stroke="black" d="M109.5,-143.7C97.15,-134.2 81.73,-122.34 68.65,-112.28"/>
<polygon fill="black" stroke="black" points="70.51,-109.29 60.45,-105.97 66.24,-114.84 70.51,-109.29"/>
</g>
<!-- action_1 -->
<g id="node4" class="node">
<title>action_1</title>
<ellipse fill="gray" stroke="black" cx="131.99" cy="-90" rx="32.16" ry="18"/>
<text text-anchor="middle" x="131.99" y="-87.8" font-family="Times,serif" font-size="9.00">action_1</text>
</g>
<!-- sequence&#45;&gt;action_1 -->
<g id="edge3" class="edge">
<title>sequence&#45;&gt;action_1</title>
<path fill="none" stroke="black" d="M131.99,-143.7C131.99,-135.98 131.99,-126.71 131.99,-118.11"/>
<polygon fill="black" stroke="black" points="135.49,-118.1 131.99,-108.1 128.49,-118.1 135.49,-118.1"/>
</g>
<!-- inverted_condition_1 -->
<g id="node6" class="node">
<title>inverted_condition_1</title>
<ellipse fill="ghostwhite" stroke="black" cx="247.99" cy="-90" rx="65.64" ry="18"/>
<text text-anchor="middle" x="247.99" y="-87.8" font-family="Times,serif" font-size="9.00">inverted_condition_1</text>
</g>
<!-- sequence*&#45;&gt;inverted_condition_1 -->
<g id="edge5" class="edge">
<title>sequence*&#45;&gt;inverted_condition_1</title>
<path fill="none" stroke="black" d="M247.99,-143.7C247.99,-135.98 247.99,-126.71 247.99,-118.11"/>
<polygon fill="black" stroke="black" points="251.49,-118.1 247.99,-108.1 244.49,-118.1 251.49,-118.1"/>
</g>
<!-- action_2 -->
<g id="node8" class="node">
<title>action_2</title>
<ellipse fill="gray" stroke="black" cx="363.99" cy="-90" rx="32.16" ry="18"/>
<text text-anchor="middle" x="363.99" y="-87.8" font-family="Times,serif" font-size="9.00">action_2</text>
</g>
<!-- sequence*&#45;&gt;action_2 -->
<g id="edge7" class="edge">
<title>sequence*&#45;&gt;action_2</title>
<path fill="none" stroke="black" d="M276.37,-143.88C293.85,-133.33 316.23,-119.82 334,-109.1"/>
<polygon fill="black" stroke="black" points="336.07,-111.94 342.82,-103.78 332.45,-105.95 336.07,-111.94"/>
</g>
<!-- condition_1* -->
<g id="node7" class="node">
<title>condition_1*</title>
<ellipse fill="gray" stroke="black" cx="247.99" cy="-18" rx="43.1" ry="18"/>
<text text-anchor="middle" x="247.99" y="-15.8" font-family="Times,serif" font-size="9.00">condition_1*</text>
</g>
<!-- inverted_condition_1&#45;&gt;condition_1* -->
<g id="edge6" class="edge">
<title>inverted_condition_1&#45;&gt;condition_1*</title>
<path fill="none" stroke="black" d="M247.99,-71.7C247.99,-63.98 247.99,-54.71 247.99,-46.11"/>
<polygon fill="black" stroke="black" points="251.49,-46.1 247.99,-36.1 244.49,-46.1 251.49,-46.1"/>
</g>
</g>
</svg>
