<?xml version="1.0" encoding="UTF-8" standalone="no"?>
<!DOCTYPE svg PUBLIC "-//W3C//DTD SVG 1.1//EN"
 "http://www.w3.org/Graphics/SVG/1.1/DTD/svg11.dtd">
<!-- Generated by graphviz version 2.43.0 (0)
 -->
<!-- Title: pastafarianism Pages: 1 -->
<svg width="520pt" height="352pt"
 viewBox="0.00 0.00 520.49 352.00" xmlns="http://www.w3.org/2000/svg" xmlns:xlink="http://www.w3.org/1999/xlink">
<g id="graph0" class="graph" transform="scale(1 1) rotate(0) translate(4 348)">
<title>pastafarianism</title>
<polygon fill="white" stroke="transparent" points="-4,4 -4,-348 516.49,-348 516.49,4 -4,4"/>
<!-- selector -->
<g id="node1" class="node">
<title>selector</title>
<polygon fill="cyan" stroke="black" points="172.57,-318.54 172.57,-333.46 153.1,-344 125.56,-344 106.09,-333.46 106.09,-318.54 125.56,-308 153.1,-308 172.57,-318.54"/>
<text text-anchor="middle" x="139.33" y="-323.8" font-family="Times,serif" font-size="9.00">selector</text>
</g>
<!-- action_1 -->
<g id="node2" class="node">
<title>action_1</title>
<ellipse fill="gray" stroke="black" cx="32.33" cy="-254" rx="32.16" ry="18"/>
<text text-anchor="middle" x="32.33" y="-251.8" font-family="Times,serif" font-size="9.00">action_1</text>
</g>
<!-- selector&#45;&gt;action_1 -->
<g id="edge1" class="edge">
<title>selector&#45;&gt;action_1</title>
<path fill="none" stroke="black" d="M118.7,-311.5C102.31,-300.78 79.21,-285.67 61.02,-273.77"/>
<polygon fill="black" stroke="black" points="62.82,-270.76 52.54,-268.22 58.99,-276.62 62.82,-270.76"/>
</g>
<!-- inverted_action_3 -->
<g id="node3" class="node">
<title>inverted_action_3</title>
<ellipse fill="ghostwhite" stroke="black" cx="139.33" cy="-254" rx="57.32" ry="18"/>
<text text-anchor="middle" x="139.33" y="-251.8" font-family="Times,serif" font-size="9.00">inverted_action_3</text>
</g>
<!-- selector&#45;&gt;inverted_action_3 -->
<g id="edge2" class="edge">
<title>selector&#45;&gt;inverted_action_3</title>
<path fill="none" stroke="black" d="M139.33,-307.7C139.33,-299.98 139.33,-290.71 139.33,-282.11"/>
<polygon fill="black" stroke="black" points="142.83,-282.1 139.33,-272.1 135.83,-282.1 142.83,-282.1"/>
</g>
<!-- sequence -->
<g id="node5" class="node">
<title>sequence</title>
<polygon fill="orange" stroke="black" points="301.33,-272 241.33,-272 241.33,-236 301.33,-236 301.33,-272"/>
<text text-anchor="middle" x="271.33" y="-251.8" font-family="Times,serif" font-size="9.00">sequence</text>
</g>
<!-- selector&#45;&gt;sequence -->
<g id="edge4" class="edge">
<title>selector&#45;&gt;sequence</title>
<path fill="none" stroke="black" d="M162.32,-312.81C181.54,-302.62 209.37,-287.86 232.1,-275.8"/>
<polygon fill="black" stroke="black" points="233.98,-278.77 241.17,-270.99 230.7,-272.59 233.98,-278.77"/>
</g>
<!-- action_3 -->
<g id="node4" class="node">
<title>action_3</title>
<ellipse fill="gray" stroke="black" cx="112.33" cy="-172" rx="32.16" ry="18"/>
<text text-anchor="middle" x="112.33" y="-169.8" font-family="Times,serif" font-size="9.00">action_3</text>
</g>
<!-- inverted_action_3&#45;&gt;action_3 -->
<g id="edge3" class="edge">
<title>inverted_action_3&#45;&gt;action_3</title>
<path fill="none" stroke="black" d="M133.61,-236.03C130.03,-225.43 125.34,-211.54 121.28,-199.51"/>
<polygon fill="black" stroke="black" points="124.56,-198.3 118.05,-189.94 117.93,-200.54 124.56,-198.3"/>
</g>
<!-- parallel -->
<g id="node6" class="node">
<title>parallel</title>
<polygon fill="gold" stroke="black" points="380.05,-200 207.1,-200 162.61,-144 335.56,-144 380.05,-200"/>
<text text-anchor="middle" x="271.33" y="-174.8" font-family="Times,serif" font-size="9.00">parallel</text>
<text text-anchor="middle" x="271.33" y="-164.8" font-family="Times,serif" font-size="9.00">&#45;&#45;SuccessOnAll(⚡)&#45;&#45;</text>
</g>
<!-- sequence&#45;&gt;parallel -->
<g id="edge5" class="edge">
<title>sequence&#45;&gt;parallel</title>
<path fill="none" stroke="black" d="M271.33,-235.64C271.33,-228.18 271.33,-219.14 271.33,-210.29"/>
<polygon fill="black" stroke="black" points="274.83,-210.08 271.33,-200.08 267.83,-210.08 274.83,-210.08"/>
</g>
<!-- inverted_action_6 -->
<g id="node10" class="node">
<title>inverted_action_6</title>
<ellipse fill="ghostwhite" stroke="black" cx="455.33" cy="-172" rx="57.32" ry="18"/>
<text text-anchor="middle" x="455.33" y="-169.8" font-family="Times,serif" font-size="9.00">inverted_action_6</text>
</g>
<!-- sequence&#45;&gt;inverted_action_6 -->
<g id="edge9" class="edge">
<title>sequence&#45;&gt;inverted_action_6</title>
<path fill="none" stroke="black" d="M301.72,-239.79C332.32,-226.48 379.75,-205.86 413.82,-191.05"/>
<polygon fill="black" stroke="black" points="415.27,-194.24 423.04,-187.04 412.48,-187.82 415.27,-194.24"/>
</g>
<!-- action_7 -->
<g id="node7" class="node">
<title>action_7</title>
<ellipse fill="gray" stroke="black" cx="202.33" cy="-90" rx="32.16" ry="18"/>
<text text-anchor="middle" x="202.33" y="-87.8" font-family="Times,serif" font-size="9.00">action_7</text>
</g>
<!-- parallel&#45;&gt;action_7 -->
<g id="edge6" class="edge">
<title>parallel&#45;&gt;action_7</title>
<path fill="none" stroke="black" d="M247.97,-143.92C239.75,-134.38 230.58,-123.75 222.62,-114.53"/>
<polygon fill="black" stroke="black" points="225.19,-112.14 216.01,-106.85 219.89,-116.71 225.19,-112.14"/>
</g>
<!-- inverted_action_2 -->
<g id="node8" class="node">
<title>inverted_action_2</title>
<ellipse fill="ghostwhite" stroke="black" cx="309.33" cy="-90" rx="57.32" ry="18"/>
<text text-anchor="middle" x="309.33" y="-87.8" font-family="Times,serif" font-size="9.00">inverted_action_2</text>
</g>
<!-- parallel&#45;&gt;inverted_action_2 -->
<g id="edge7" class="edge">
<title>parallel&#45;&gt;inverted_action_2</title>
<path fill="none" stroke="black" d="M284.2,-143.92C288.26,-135.35 292.75,-125.91 296.8,-117.39"/>
<polygon fill="black" stroke="black" points="300,-118.81 301.13,-108.27 293.68,-115.8 300,-118.81"/>
</g>
<!-- action_2 -->
<g id="node9" class="node">
<title>action_2</title>
<ellipse fill="gray" stroke="black" cx="309.33" cy="-18" rx="32.16" ry="18"/>
<text text-anchor="middle" x="309.33" y="-15.8" font-family="Times,serif" font-size="9.00">action_2</text>
</g>
<!-- inverted_action_2&#45;&gt;action_2 -->
<g id="edge8" class="edge">
<title>inverted_action_2&#45;&gt;action_2</title>
<path fill="none" stroke="black" d="M309.33,-71.7C309.33,-63.98 309.33,-54.71 309.33,-46.11"/>
<polygon fill="black" stroke="black" points="312.83,-46.1 309.33,-36.1 305.83,-46.1 312.83,-46.1"/>
</g>
<!-- action_6 -->
<g id="node11" class="node">
<title>action_6</title>
<ellipse fill="gray" stroke="black" cx="455.33" cy="-90" rx="32.16" ry="18"/>
<text text-anchor="middle" x="455.33" y="-87.8" font-family="Times,serif" font-size="9.00">action_6</text>
</g>
<!-- inverted_action_6&#45;&gt;action_6 -->
<g id="edge10" class="edge">
<title>inverted_action_6&#45;&gt;action_6</title>
<path fill="none" stroke="black" d="M455.33,-153.64C455.33,-143.3 455.33,-129.94 455.33,-118.22"/>
<polygon fill="black" stroke="black" points="458.83,-118.05 455.33,-108.05 451.83,-118.05 458.83,-118.05"/>
</g>
</g>
</svg>
