<?xml version="1.0" encoding="UTF-8" standalone="no"?>
<!DOCTYPE svg PUBLIC "-//W3C//DTD SVG 1.1//EN"
 "http://www.w3.org/Graphics/SVG/1.1/DTD/svg11.dtd">
<!-- Generated by graphviz version 2.43.0 (0)
 -->
<!-- Title: pastafarianism Pages: 1 -->
<svg width="214pt" height="188pt"
 viewBox="0.00 0.00 214.32 188.00" xmlns="http://www.w3.org/2000/svg" xmlns:xlink="http://www.w3.org/1999/xlink">
<g id="graph0" class="graph" transform="scale(1 1) rotate(0) translate(4 184)">
<title>pastafarianism</title>
<polygon fill="white" stroke="transparent" points="-4,4 -4,-184 210.32,-184 210.32,4 -4,4"/>
<!-- sequence -->
<g id="node1" class="node">
<title>sequence</title>
<polygon fill="orange" stroke="black" points="161.99,-180 101.99,-180 101.99,-144 161.99,-144 161.99,-180"/>
<text text-anchor="middle" x="131.99" y="-159.8" font-family="Times,serif" font-size="9.00">sequence</text>
</g>
<!-- selector -->
<g id="node2" class="node">
<title>selector</title>
<polygon fill="cyan" stroke="black" points="124.23,-82.54 124.23,-97.46 104.76,-108 77.22,-108 57.75,-97.46 57.75,-82.54 77.22,-72 104.76,-72 124.23,-82.54"/>
<text text-anchor="middle" x="90.99" y="-87.8" font-family="Times,serif" font-size="9.00">selector</text>
</g>
<!-- sequence&#45;&gt;selector -->
<g id="edge1" class="edge">
<title>sequence&#45;&gt;selector</title>
<path fill="none" stroke="black" d="M121.86,-143.7C117.14,-135.64 111.43,-125.89 106.21,-116.98"/>
<polygon fill="black" stroke="black" points="109.08,-114.96 101.01,-108.1 103.04,-118.5 109.08,-114.96"/>
</g>
<!-- action_1 -->
<g id="node5" class="node">
<title>action_1</title>
<ellipse fill="gray" stroke="black" cx="173.99" cy="-90" rx="32.16" ry="18"/>
<text text-anchor="middle" x="173.99" y="-87.8" font-family="Times,serif" font-size="9.00">action_1</text>
</g>
<!-- sequence&#45;&gt;action_1 -->
<g id="edge4" class="edge">
<title>sequence&#45;&gt;action_1</title>
<path fill="none" stroke="black" d="M142.37,-143.7C147.33,-135.44 153.36,-125.39 158.81,-116.3"/>
<polygon fill="black" stroke="black" points="161.87,-118 164.02,-107.62 155.87,-114.4 161.87,-118"/>
</g>
<!-- condition_1 -->
<g id="node3" class="node">
<title>condition_1</title>
<ellipse fill="gray" stroke="black" cx="40.99" cy="-18" rx="40.98" ry="18"/>
<text text-anchor="middle" x="40.99" y="-15.8" font-family="Times,serif" font-size="9.00">condition_1</text>
</g>
<!-- selector&#45;&gt;condition_1 -->
<g id="edge2" class="edge">
<title>selector&#45;&gt;condition_1</title>
<path fill="none" stroke="black" d="M78.63,-71.7C72.67,-63.35 65.41,-53.18 58.86,-44.02"/>
<polygon fill="black" stroke="black" points="61.53,-41.73 52.86,-35.62 55.83,-45.79 61.53,-41.73"/>
</g>
<!-- condition_2 -->
<g id="node4" class="node">
<title>condition_2</title>
<ellipse fill="gray" stroke="black" cx="140.99" cy="-18" rx="40.98" ry="18"/>
<text text-anchor="middle" x="140.99" y="-15.8" font-family="Times,serif" font-size="9.00">condition_2</text>
</g>
<!-- selector&#45;&gt;condition_2 -->
<g id="edge3" class="edge">
<title>selector&#45;&gt;condition_2</title>
<path fill="none" stroke="black" d="M103.35,-71.7C109.31,-63.35 116.57,-53.18 123.12,-44.02"/>
<polygon fill="black" stroke="black" points="126.15,-45.79 129.12,-35.62 120.46,-41.73 126.15,-45.79"/>
</g>
</g>
</svg>
